<svg width="1440" height="1024" viewBox="0 0 1440 1024" fill="none" xmlns="http://www.w3.org/2000/svg">
<g id="bg-hero" clip-path="url(#clip0_8_54)">
<g id="Vector 1115" filter="url(#filter0_f_8_54)">
<path d="M1550.98 829.855C639.985 804.753 359.415 356.508 42.5878 369.267C-355.685 385.306 -281.477 805.751 42.5878 965.948C424.572 1154.78 2168.34 846.867 1550.98 829.855Z" fill="url(#paint0_linear_8_54)" fill-opacity="0.3"/>
</g>
<g id="Vector 1114" filter="url(#filter1_f_8_54)">
<path d="M969.294 426.407C1244.06 515.18 1545.39 726.257 1648.63 718.308C1833.45 704.076 1709.87 215.765 1484.12 77.0149C1272.29 -53.1825 -5.32145 22.3751 365.949 297.168C563.471 443.363 735.456 350.856 969.294 426.407Z" fill="url(#paint1_linear_8_54)" fill-opacity="0.2"/>
</g>
<path id="bg-heroline3" d="M-708.944 257.462C-30.3766 97.1335 259.476 185.125 760.407 519.294C1181.9 800.468 1640.68 872.341 2153.18 767.481" stroke="url(#paint2_linear_8_54)"/>
<path id="bg-heroline2" d="M-674.318 890.311C-120.848 466.247 179.625 427.871 773.458 527.69C1273.11 611.679 1721.12 489.441 2145.78 183.968" stroke="url(#paint3_linear_8_54)"/>
<path id="bg-heroline1" d="M-565.804 1226.67C-95.6906 711.741 193.324 621.034 795.454 614.686C1302.09 609.344 1721.56 410.099 2085.77 34.5964" stroke="url(#paint4_linear_8_54)"/>
<rect id="square8" x="984.061" y="540" width="16" height="16" rx="2" transform="rotate(22.2604 984.061 540)" fill="url(#paint5_linear_8_54)"/>
<rect id="square6" x="265" y="251.477" width="16" height="16" rx="2" transform="rotate(-20.0179 265 251.477)" fill="url(#paint6_linear_8_54)"/>
<rect id="square5" x="1257.68" y="222.691" width="16" height="16" rx="2" transform="rotate(91.8123 1257.68 222.691)" fill="url(#paint7_linear_8_54)"/>
<rect id="square4" x="571.777" y="882" width="16" height="16" rx="2" transform="rotate(80.4128 571.777 882)" fill="url(#paint8_linear_8_54)"/>
<rect id="square1" x="990.56" y="851" width="72" height="72" rx="4" transform="rotate(25.1155 990.56 851)" fill="url(#paint9_linear_8_54)"/>
</g>
<defs>
<filter id="filter0_f_8_54" x="-579" y="19" width="2611" height="1358" filterUnits="userSpaceOnUse" color-interpolation-filters="sRGB">
<feFlood flood-opacity="0" result="BackgroundImageFix"/>
<feBlend mode="normal" in="SourceGraphic" in2="BackgroundImageFix" result="shape"/>
<feGaussianBlur stdDeviation="175" result="effect1_foregroundBlur_8_54"/>
</filter>
<filter id="filter1_f_8_54" x="-1.28976" y="-284.983" width="2039.59" height="1303.51" filterUnits="userSpaceOnUse" color-interpolation-filters="sRGB">
<feFlood flood-opacity="0" result="BackgroundImageFix"/>
<feBlend mode="normal" in="SourceGraphic" in2="BackgroundImageFix" result="shape"/>
<feGaussianBlur stdDeviation="150" result="effect1_foregroundBlur_8_54"/>
</filter>
<linearGradient id="paint0_linear_8_54" x1="1682" y1="369" x2="1276.9" y2="1545.51" gradientUnits="userSpaceOnUse">
<stop stop-color="#1CEAFF"/>
<stop offset="1" stop-color="#538BF0" stop-opacity="0"/>
</linearGradient>
<linearGradient id="paint1_linear_8_54" x1="445.771" y1="955.83" x2="971.863" y2="-393.785" gradientUnits="userSpaceOnUse">
<stop stop-color="#17F7FF"/>
<stop offset="1" stop-color="#538BF0" stop-opacity="0"/>
</linearGradient>
<linearGradient id="paint2_linear_8_54" x1="2156.88" y1="746.717" x2="-705.243" y2="236.698" gradientUnits="userSpaceOnUse">
<stop stop-color="#17F7FF"/>
<stop offset="1" stop-color="#538BF0" stop-opacity="0"/>
</linearGradient>
<linearGradient id="paint3_linear_8_54" x1="2140.66" y1="163.509" x2="-679.442" y2="869.852" gradientUnits="userSpaceOnUse">
<stop stop-color="#17F7FF"/>
<stop offset="1" stop-color="#538BF0" stop-opacity="0"/>
</linearGradient>
<linearGradient id="paint4_linear_8_54" x1="2077.12" y1="15.36" x2="-574.452" y2="1207.43" gradientUnits="userSpaceOnUse">
<stop stop-color="#17F7FF"/>
<stop offset="1" stop-color="#538BF0" stop-opacity="0"/>
</linearGradient>
<linearGradient id="paint5_linear_8_54" x1="1000.06" y1="540" x2="984.061" y2="556" gradientUnits="userSpaceOnUse">
<stop stop-color="#18F9FF"/>
<stop offset="1" stop-color="#538BF0" stop-opacity="0"/>
</linearGradient>
<linearGradient id="paint6_linear_8_54" x1="281" y1="251.477" x2="265" y2="267.477" gradientUnits="userSpaceOnUse">
<stop stop-color="#18F9FF"/>
<stop offset="1" stop-color="#538BF0" stop-opacity="0"/>
</linearGradient>
<linearGradient id="paint7_linear_8_54" x1="1273.68" y1="222.691" x2="1257.68" y2="238.691" gradientUnits="userSpaceOnUse">
<stop stop-color="#18F9FF"/>
<stop offset="1" stop-color="#538BF0" stop-opacity="0"/>
</linearGradient>
<linearGradient id="paint8_linear_8_54" x1="587.777" y1="882" x2="571.777" y2="898" gradientUnits="userSpaceOnUse">
<stop stop-color="#18F9FF"/>
<stop offset="1" stop-color="#538BF0" stop-opacity="0"/>
</linearGradient>
<linearGradient id="paint9_linear_8_54" x1="1062.56" y1="851" x2="990.56" y2="923" gradientUnits="userSpaceOnUse">
<stop stop-color="#C0EDF9" stop-opacity="0"/>
<stop offset="1" stop-color="#17F7FF"/>
</linearGradient>
<clipPath id="clip0_8_54">
<rect width="2560" height="1440" fill="white" transform="translate(-507 -147)"/>
</clipPath>
</defs>
</svg>
