<svg width="72" height="72" viewBox="0 0 72 72" fill="none" xmlns="http://www.w3.org/2000/svg">
<path d="M24.0823 57.9743C24.0823 58.2721 23.7484 58.5103 23.3274 58.5103C22.8484 58.5549 22.5145 58.3167 22.5145 57.9743C22.5145 57.6765 22.8484 57.4383 23.2694 57.4383C23.7048 57.3937 24.0823 57.6319 24.0823 57.9743ZM19.5677 57.3043C19.4661 57.6021 19.7565 57.9445 20.1919 58.0338C20.5694 58.1827 21.0048 58.0338 21.0919 57.7361C21.179 57.4383 20.9032 57.0959 20.4677 56.9619C20.0903 56.8577 19.6694 57.0066 19.5677 57.3043ZM25.9839 57.0512C25.5629 57.1554 25.2726 57.4383 25.3161 57.7807C25.3597 58.0785 25.7371 58.2721 26.1726 58.1678C26.5935 58.0636 26.8839 57.7807 26.8403 57.483C26.7968 57.2001 26.4048 57.0066 25.9839 57.0512ZM35.5355 0C15.4016 0 0 15.6772 0 36.327C0 52.8379 10.1323 66.9667 24.6048 71.9393C26.4629 72.2818 27.1161 71.1056 27.1161 70.1379C27.1161 69.2148 27.0726 64.1231 27.0726 60.9966C27.0726 60.9966 16.9113 63.2298 14.7774 56.5599C14.7774 56.5599 13.1226 52.2275 10.7419 51.1109C10.7419 51.1109 7.41774 48.7734 10.9742 48.8181C10.9742 48.8181 14.5887 49.1159 16.5774 52.6592C19.7565 58.406 25.0839 56.7535 27.1597 55.7709C27.4935 53.3888 28.4371 51.7362 29.4823 50.7536C21.3677 49.8305 13.1806 48.6246 13.1806 34.3022C13.1806 30.208 14.2839 28.1534 16.6065 25.5331C16.229 24.5654 14.9952 20.5754 16.9839 15.4241C20.0177 14.4564 27 19.4439 27 19.4439C29.9032 18.6101 33.0242 18.1784 36.1161 18.1784C39.2081 18.1784 42.329 18.6101 45.2323 19.4439C45.2323 19.4439 52.2145 14.4415 55.2484 15.4241C57.2371 20.5903 56.0032 24.5654 55.6258 25.5331C57.9484 28.1683 59.371 30.2229 59.371 34.3022C59.371 48.6692 50.821 49.8156 42.7065 50.7536C44.0419 51.9297 45.1742 54.1629 45.1742 57.6616C45.1742 62.6789 45.1306 68.8873 45.1306 70.1081C45.1306 71.0758 45.7984 72.252 47.6419 71.9096C62.1581 66.9667 72 52.8379 72 36.327C72 15.6772 55.6694 0 35.5355 0ZM14.1097 51.3491C13.921 51.498 13.9645 51.8404 14.2113 52.1233C14.4435 52.3615 14.7774 52.4657 14.9661 52.2721C15.1548 52.1233 15.1113 51.7808 14.8645 51.498C14.6323 51.2598 14.2984 51.1555 14.1097 51.3491ZM12.5419 50.1431C12.4403 50.3367 12.5855 50.5749 12.8758 50.7238C13.1081 50.8727 13.3984 50.828 13.5 50.6196C13.6016 50.426 13.4565 50.1878 13.1661 50.0389C12.8758 49.9496 12.6435 49.9943 12.5419 50.1431ZM17.2452 55.4433C17.0129 55.6369 17.1 56.0835 17.4339 56.3664C17.7677 56.7088 18.1887 56.7535 18.3774 56.5153C18.5661 56.3217 18.479 55.8751 18.1887 55.5922C17.8694 55.2498 17.4339 55.2051 17.2452 55.4433ZM15.5903 53.2548C15.3581 53.4036 15.3581 53.7907 15.5903 54.1332C15.8226 54.4756 16.2145 54.6245 16.4032 54.4756C16.6355 54.282 16.6355 53.895 16.4032 53.5525C16.2 53.2101 15.8226 53.0612 15.5903 53.2548Z" fill="white"/>
</svg>
