<svg width="100" height="100" viewBox="0 0 100 100" fill="none" xmlns="http://www.w3.org/2000/svg">
<circle cx="50" cy="50" r="50" fill="white"/>
<path d="M70.785 46.4084L73.2251 48.7867C74.2583 49.7938 74.2583 51.4222 73.2251 52.4185L51.8686 73.2447C50.8354 74.2518 49.1646 74.2518 48.1424 73.2447L26.7749 52.4185C25.7417 51.4115 25.7417 49.7831 26.7749 48.7867L29.215 46.4084C30.2592 45.3907 31.9629 45.4121 32.9851 46.4513L45.6034 59.3606V28.5711C45.6034 27.1463 46.7795 26 48.2414 26H51.7586C53.2205 26 54.3966 27.1463 54.3966 28.5711V59.3606L67.0149 46.4513C68.0371 45.4014 69.7408 45.38 70.785 46.4084Z" fill="#0694FE"/>
</svg>
